<?xml version="1.0"?>
<svg xmlns="http://www.w3.org/2000/svg" height="512px" viewBox="0 0 512 512" width="512px" class=""><g><path d="m496 272h-480c-8.832031 0-16-7.167969-16-16s7.167969-16 16-16h480c8.832031 0 16 7.167969 16 16s-7.167969 16-16 16zm0 0" data-original="#000000" class="active-path" fill="#000000"/><path d="m496 394.667969h-309.332031c-8.832031 0-16-7.167969-16-16s7.167969-16 16-16h309.332031c8.832031 0 16 7.167969 16 16s-7.167969 16-16 16zm0 0" data-original="#000000" class="active-path" fill="#000000"/><path d="m496 512h-309.332031c-8.832031 0-16-7.167969-16-16s7.167969-16 16-16h309.332031c8.832031 0 16 7.167969 16 16s-7.167969 16-16 16zm0 0" data-original="#000000" class="active-path" fill="#000000"/><path d="m496 149.332031h-309.332031c-8.832031 0-16-7.167969-16-16s7.167969-16 16-16h309.332031c8.832031 0 16 7.167969 16 16s-7.167969 16-16 16zm0 0" data-original="#000000" class="active-path" fill="#000000"/><path d="m496 32h-309.332031c-8.832031 0-16-7.167969-16-16s7.167969-16 16-16h309.332031c8.832031 0 16 7.167969 16 16s-7.167969 16-16 16zm0 0" data-original="#000000" class="active-path" fill="#000000"/><path d="m101.332031 357.332031c-4.09375 0-8.191406-1.554687-11.304687-4.691406l-85.335938-85.332031c-6.25-6.253906-6.25-16.386719 0-22.636719l85.335938-85.332031c6.25-6.25 16.382812-6.25 22.632812 0s6.25 16.382812 0 22.632812l-74.027344 74.027344 74.027344 74.027344c6.25 6.25 6.25 16.382812 0 22.632812-3.136718 3.117188-7.230468 4.671875-11.328125 4.671875zm0 0" data-original="#000000" class="active-path" fill="#000000"/></g> </svg>
