<svg id="SvgjsSvg253684" width="27" height="24" xmlns="http://www.w3.org/2000/svg" version="1.1" xmlns:xlink="http://www.w3.org/1999/xlink" xmlns:svgjs="http://svgjs.com/svgjs" viewBox="0 0.057861328125 27.00006103515625 23.88427734375" fill="#ffffff" opacity="1"><defs id="SvgjsDefs253685"></defs><svg version="1.1" xmlns="http://www.w3.org/2000/svg" xmlns:xlink="http://www.w3.org/1999/xlink" width="27" height="24" viewBox="1 1.99999 25.9999 22.9996"><g><path fill="#ffffff" stroke="none" paint-order="stroke fill markers" fill-rule="evenodd" d=" M 5.4432830810546875 4.6307854652404785 C 5.723663330078125 4.6307854652404785 5.951171875 4.859145760536194 5.951171875 5.140032649040222 C 5.951171875 5.421292066574097 5.723663330078125 5.649652361869812 5.4432830810546875 5.649652361869812 C 5.163017272949219 5.649652361869812 4.935508728027344 5.421292066574097 4.935508728027344 5.140032649040222 C 4.935508728027344 4.859145760536194 5.163017272949219 4.6307854652404785 5.4432830810546875 4.6307854652404785 Z M 2.8048477172851562 4.117812991142273 C 4.01666259765625 2.7521215677261353 5.697685241699219 1.9999854564666748 7.5380096435546875 1.9999854564666748 C 9.550453186035156 1.9999854564666748 11.386772155761719 2.7819238901138306 12.848411560058594 4.261981725692749 C 13.356643676757812 4.7768168449401855 13.736587524414062 5.2905343770980835 13.999916076660156 5.698453664779663 C 14.26324462890625 5.2905343770980835 14.6431884765625 4.7768168449401855 15.151420593261719 4.261981725692749 C 16.613059997558594 2.7819238901138306 18.449378967285156 1.9999854564666748 20.461822509765625 1.9999854564666748 C 24.31390380859375 1.9999854564666748 26.99994659423828 5.231302261352539 26.99994659423828 9.073194146156311 C 26.99994659423828 14.26326858997345 21.515365600585938 18.633034110069275 14.332481384277344 24.875130534172058 C 14.237037658691406 24.95820450782776 14.118476867675781 24.999555230140686 13.999916076660156 24.999555230140686 C 13.881355285644531 24.999555230140686 13.762794494628906 24.95820450782776 13.667350769042969 24.875130534172058 C 6.467414855957031 18.618505477905273 1 14.256190538406372 1 9.073194146156311 C 1 7.189687371253967 1.640869140625 5.429487705230713 2.8048477172851562 4.117812991142273 Z M 13.999916076660156 23.81677556037903 C 20.78271484375 17.93118941783905 25.984283447265625 13.70372998714447 25.984283447265625 9.073194146156311 C 25.984283447265625 5.6213401556015015 23.610206604003906 3.018107295036316 20.461822509765625 3.018107295036316 C 18.71373748779297 3.018107295036316 17.17828369140625 3.6692880392074585 15.898147583007812 4.95339560508728 C 14.922767639160156 5.931284308433533 14.467750549316406 6.930034637451172 14.463287353515625 6.939720392227173 C 14.381576538085938 7.122259616851807 14.200416564941406 7.239978790283203 14.000717163085938 7.239978790283203 C 14.000373840332031 7.239978790283203 14.000030517578125 7.239978790283203 13.999687194824219 7.239978790283203 C 13.800102233886719 7.239978790283203 13.61871337890625 7.122259616851807 13.536544799804688 6.939720392227173 C 13.532081604003906 6.930034637451172 13.077064514160156 5.932029366493225 12.1016845703125 4.95339560508728 C 10.821548461914062 3.6692880392074585 9.286094665527344 3.018107295036316 7.5380096435546875 3.018107295036316 C 4.389625549316406 3.018107295036316 2.0155487060546875 5.6213401556015015 2.0155487060546875 9.073194146156311 C 2.0155487060546875 13.80841064453125 7.560325622558594 18.229212641716003 13.999916076660156 23.81677556037903 Z M 3.6671600341796875 6.445374369621277 C 3.797393798828125 6.195779919624329 4.104438781738281 6.100039958953857 4.352775573730469 6.230797648429871 C 4.601112365722656 6.361182808876038 4.6968994140625 6.669264316558838 4.5666656494140625 6.918113708496094 C 4.231353759765625 7.559236168861389 4.046875 8.324410796165466 4.046875 9.073194146156311 C 4.046875 10.544683814048767 4.7451934814453125 12.106698036193848 6.244712829589844 13.987969636917114 C 6.419807434082031 14.208134293556213 6.384101867675781 14.528509259223938 6.165061950683594 14.703970432281494 C 5.9445343017578125 14.880549192428589 5.625358581542969 14.842551231384277 5.4512939453125 14.62424921989441 C 3.8002548217773438 12.552242755889893 3.0312118530273438 10.788317799568176 3.0312118530273438 9.073194146156311 C 3.0312118530273438 8.149694681167603 3.2511672973632812 7.240351319313049 3.6671600341796875 6.445374369621277 Z"></path></g></svg></svg>