<svg width="27" height="24" xmlns="http://www.w3.org/2000/svg" xmlns:xlink="http://www.w3.org/1999/xlink" xmlns:svgjs="http://svgjs.com/svgjs" viewBox="0 0.058 27 23.884" fill="#fff"><svg xmlns="http://www.w3.org/2000/svg" width="27" height="24" viewBox="1 2 26 23"><path paint-order="stroke fill markers" fill-rule="evenodd" d="M5.443 4.63a.509.509 0 1 1-.002 1.019.509.509 0 0 1 .002-1.018zm-2.638-.512A6.244 6.244 0 0 1 7.538 2c2.012 0 3.849.782 5.31 2.262A9.035 9.035 0 0 1 14 5.698a9.035 9.035 0 0 1 1.151-1.436C16.613 2.782 18.45 2 20.461 2 24.315 2 27 5.231 27 9.073c0 5.19-5.485 9.56-12.668 15.802a.505.505 0 0 1-.665 0C6.467 18.62 1 14.256 1 9.073c0-1.883.64-3.644 1.805-4.955zM14 23.817c6.783-5.886 11.984-10.113 11.984-14.744 0-3.452-2.374-6.055-5.522-6.055-1.748 0-3.284.651-4.564 1.935-.975.978-1.43 1.977-1.435 1.987a.507.507 0 0 1-.462.3H14a.509.509 0 0 1-.463-.3c-.005-.01-.46-1.008-1.435-1.987-1.28-1.284-2.816-1.935-4.564-1.935-3.148 0-5.522 2.603-5.522 6.055 0 4.735 5.544 9.156 11.984 14.744zM3.667 6.445a.507.507 0 0 1 .686-.214.51.51 0 0 1 .214.687 4.73 4.73 0 0 0-.52 2.155c0 1.472.698 3.034 2.198 4.915a.51.51 0 0 1-.08.716.507.507 0 0 1-.714-.08c-1.65-2.072-2.42-3.836-2.42-5.55 0-.924.22-1.834.636-2.629z"/></svg></svg>