<svg width="27" height="24" xmlns="http://www.w3.org/2000/svg" xmlns:xlink="http://www.w3.org/1999/xlink" xmlns:svgjs="http://svgjs.com/svgjs" viewBox="0 0.058 27 23.885" fill="#fff"><svg xmlns="http://www.w3.org/2000/svg" width="27" height="24" viewBox="2 2 26 23"><path paint-order="stroke fill markers" fill-rule="evenodd" d="M26.818 14.71c-.354 0-.59.242-.59.606v7.868c0 .363-.237.605-.592.605H4.364c-.355 0-.591-.242-.591-.605v-7.868c0-.364-.237-.605-.591-.605-.355 0-.591.241-.591.605v7.868c0 1.029.768 1.816 1.773 1.816h21.272c1.005 0 1.773-.787 1.773-1.816v-7.868c0-.364-.236-.605-.59-.605zm-.59-8.474H3.772C2.768 6.236 2 7.023 2 8.052v3.874c0 .847.59 1.574 1.36 1.755l9.276 2.118v1.938c0 .363.237.605.591.605h3.546c.354 0 .59-.242.59-.605v-1.938l9.278-2.118C27.409 13.5 28 12.773 28 11.926V8.052c0-1.029-.768-1.816-1.773-1.816zM16.181 17.131h-2.364v-2.42h2.364v2.42zm10.636-5.205c0 .303-.177.545-.473.605l-8.981 2.058v-.484c0-.363-.237-.605-.591-.605h-3.546c-.354 0-.59.242-.59.605v.484l-8.983-2.057c-.295-.061-.472-.303-.472-.606V8.052c0-.363.236-.605.59-.605h22.455c.355 0 .591.242.591.605v3.874zM17.954 2h-5.909c-1.004 0-1.772.787-1.772 1.816v.605c0 .363.236.605.59.605.355 0 .591-.242.591-.605v-.605c0-.364.237-.606.591-.606h5.91c.354 0 .59.242.59.606v.605c0 .363.237.605.591.605.355 0 .591-.242.591-.605v-.605c0-1.03-.768-1.816-1.773-1.816z"/></svg></svg>