<svg width="27" height="25" xmlns="http://www.w3.org/2000/svg" xmlns:xlink="http://www.w3.org/1999/xlink" xmlns:svgjs="http://svgjs.com/svgjs" viewBox="0 0.022 27 24.955" fill="#fff"><svg xmlns="http://www.w3.org/2000/svg" width="27" height="25" viewBox="2 2 25.967 24"><path paint-order="stroke fill markers" fill-rule="evenodd" d="M3.73 14.262a.484.484 0 0 0-.139-.254.525.525 0 0 0-.165-.108.522.522 0 0 0-.553.108.486.486 0 0 0-.138.447.497.497 0 0 0 .398.39.496.496 0 0 0 .293-.028.508.508 0 0 0 .275-.269.489.489 0 0 0 .029-.286zM20.053 7.23a.519.519 0 0 0-.076-.179.492.492 0 0 0-.227-.182.508.508 0 0 0-.553.107.495.495 0 0 0-.139.448.506.506 0 0 0 .216.316.5.5 0 0 0 .183.073.491.491 0 0 0 .293-.028.511.511 0 0 0 .274-.268.506.506 0 0 0 .039-.19.491.491 0 0 0-.01-.097zm-5.07 1.706C12.13 8.937 9.81 11.208 9.81 14s2.321 5.063 5.175 5.063c2.853 0 5.174-2.271 5.174-5.063s-2.321-5.063-5.174-5.063zm0 9.133c-2.293 0-4.16-1.826-4.16-4.07 0-2.245 1.867-4.07 4.16-4.07 2.295 0 4.16 1.825 4.16 4.07 0 2.244-1.865 4.07-4.16 4.07zm0-7.133c-1.726 0-3.13 1.374-3.13 3.063s1.404 3.063 3.13 3.063c1.727 0 3.131-1.374 3.131-3.063 0-1.69-1.404-3.063-3.13-3.063zm0 5.133c-1.166 0-2.116-.928-2.116-2.07s.95-2.071 2.117-2.071c1.166 0 2.116.93 2.116 2.07 0 1.143-.95 2.071-2.116 2.071zm6.4-7.86a.515.515 0 0 0-.717-.027.489.489 0 0 0-.028.702A7.424 7.424 0 0 1 22.688 14c0 3.376-2.335 6.353-5.62 7.259a2.182 2.182 0 0 0-2.084-1.502c-.979 0-1.808.632-2.085 1.502-3.285-.906-5.62-3.882-5.62-7.26 0-3.37 2.337-6.352 5.62-7.258a2.182 2.182 0 0 0 2.085 1.502c1.204 0 2.183-.958 2.183-2.137 0-1.177-.98-2.136-2.183-2.136-1.073 0-1.968.761-2.15 1.76A8.793 8.793 0 0 0 8.23 8.61a8.43 8.43 0 0 0-1.966 5.39c0 1.967.703 3.887 1.98 5.407a8.79 8.79 0 0 0 4.59 2.863c.182 1 1.077 1.76 2.15 1.76 1.072 0 1.967-.76 2.15-1.76a8.79 8.79 0 0 0 4.592-2.865A8.43 8.43 0 0 0 23.703 14a8.402 8.402 0 0 0-2.32-5.79zm-6.4-3.247c.645 0 1.17.513 1.17 1.143 0 .631-.525 1.144-1.17 1.144a1.158 1.158 0 0 1-1.168-1.144c0-.63.524-1.143 1.169-1.143zm0 18.074a1.158 1.158 0 0 1-1.168-1.144c0-.63.524-1.144 1.169-1.144.644 0 1.169.513 1.169 1.144 0 .63-.525 1.144-1.17 1.144zm11.945-6.311c.212-.89.32-1.805.32-2.726 0-6.617-5.502-12-12.264-12C10.857 2 7.036 4.015 4.75 7.39c-1.03-.272-2.14.232-2.573 1.219-.476 1.082.037 2.341 1.143 2.807.28.118.572.174.86.174a2.19 2.19 0 0 0 2.008-1.293 2.108 2.108 0 0 0-.543-2.43c2.102-3.056 5.582-4.876 9.338-4.876 6.203 0 11.25 4.938 11.25 11.008 0 .815-.093 1.626-.274 2.416-.908-.072-1.803.422-2.182 1.285a2.109 2.109 0 0 0 .544 2.431c-2.102 3.061-5.56 4.875-9.338 4.875-5.365 0-10.008-3.736-11.04-8.884a.507.507 0 0 0-.596-.392.497.497 0 0 0-.4.583C4.074 21.926 9.135 26 14.983 26c2.127 0 4.224-.544 6.065-1.572a12.273 12.273 0 0 0 4.168-3.82c.187.05.377.073.565.073.846 0 1.653-.484 2.008-1.291a2.116 2.116 0 0 0-.86-2.664zm-21.67-6.82a1.18 1.18 0 0 1-1.536.599 1.136 1.136 0 0 1-.612-1.503c.19-.432.622-.691 1.075-.691.154 0 .31.03.46.093.593.249.867.923.612 1.502zm21.6 9.091a1.18 1.18 0 0 1-1.536.599 1.136 1.136 0 0 1-.612-1.503 1.18 1.18 0 0 1 1.536-.599c.592.25.866.924.612 1.503z"/></svg></svg>