<svg width="20" height="24" xmlns="http://www.w3.org/2000/svg" xmlns:xlink="http://www.w3.org/1999/xlink" xmlns:svgjs="http://svgjs.com/svgjs" viewBox="0.087 0 19.826 24" fill="#fff"><svg xmlns="http://www.w3.org/2000/svg" width="20" height="24" viewBox="2 2 19 23"><path paint-order="stroke fill markers" fill-rule="evenodd" d="M18.22 2.926c-.216 0-.44.027-.663.083l.171.697c1.363-.333 2.55.7 2.55 1.991 0 3.023-3.45 5.25-4.89 5.67l.203.69C17.418 11.524 21 9.035 21 5.697a2.778 2.778 0 0 0-2.78-2.771zM2.72 5.697a2.043 2.043 0 0 1 2.55-1.99l.173-.698C3.64 2.567 2 3.952 2 5.697c0 3.339 3.581 5.827 5.408 6.36l.202-.69c-1.439-.42-4.89-2.647-4.89-5.67zm10.03 9.68h-2.5a.36.36 0 0 0-.36.36V17.1a.36.36 0 0 0 .436.35 5.805 5.805 0 0 1 2.347 0 .358.358 0 0 0 .436-.35v-1.364a.36.36 0 0 0-.36-.36zm-.361 1.296a6.643 6.643 0 0 0-1.778 0v-.577h1.778v.577zm3.974 6.28H6.637a.36.36 0 0 0-.36.36v1.327c0 .2.16.36.36.36h9.726c.199 0 .36-.16.36-.36v-1.327a.36.36 0 0 0-.36-.36zm-.36 1.328H6.997v-.609h9.006v.609zm-.264-6.39H7.26a.36.36 0 0 0-.36.359v5.063c0 .198.161.36.36.36h8.48a.36.36 0 0 0 .36-.36V18.25a.36.36 0 0 0-.36-.36zm-.36 5.062H7.62V18.61h7.758v4.344zm-1.08-3.626H8.701a.36.36 0 0 0-.36.36v2.188c0 .199.16.36.36.36h5.596a.36.36 0 0 0 .36-.36v-2.188a.36.36 0 0 0-.36-.36zm-.361 2.188H9.062v-1.469h4.876v1.47zM17.85 2.18a.603.603 0 0 0-.433-.18H5.582a.605.605 0 0 0-.431.18.605.605 0 0 0-.178.432c.003.245.012.486.024.76.009.221.021.44.036.658.18 2.662.774 5.094 1.72 7.034.139.285.289.565.446.83.722 1.222 1.549 2.1 2.459 2.607a.36.36 0 0 0 .308.021c.084.003.178.003.284.003h2.79a.36.36 0 0 0 .302-.023c.91-.508 1.737-1.385 2.459-2.608.155-.265.305-.544.445-.83.946-1.94 1.54-4.373 1.72-7.033.015-.218.027-.437.036-.66.01-.251.02-.503.023-.757a.601.601 0 0 0-.175-.434zm-.568 1.162c-.01.216-.02.428-.035.64-.173 2.57-.743 4.91-1.65 6.768-.13.268-.271.53-.417.78-.615 1.04-1.33 1.824-2.073 2.276H10.25h-.358c-.743-.452-1.457-1.236-2.072-2.277-.147-.25-.288-.511-.418-.78-.906-1.857-1.476-4.197-1.65-6.767a26.367 26.367 0 0 1-.036-.672c-.008-.197-.016-.393-.02-.592h11.607c-.004.21-.012.417-.02.624zm-1.454.214c-.005.113-.012.22-.019.325-.15 2.226-.658 4.325-1.43 5.91-.109.22-.226.44-.35.65-.427.723-.905 1.284-1.383 1.623l.418.586c.56-.398 1.108-1.036 1.586-1.845.134-.226.26-.462.376-.7.812-1.666 1.345-3.86 1.502-6.177l.02-.335-.72-.037zm-3.079 10.25h-2.515c-.606 0-.667 1.173-.667 1.185 0 .011.071 1.106.683 1.106h2.516c.596 0 .666-1.095.666-1.106 0-.012-.06-1.185-.683-1.185zm-.131 1.572h-2.236a1.564 1.564 0 0 1-.094-.387c0-.087.053-.327.105-.466h2.214c.052.139.104.38.105.466-.001.073-.047.27-.094.387zm.207 1.371a6.532 6.532 0 0 0-2.65 0c-1.194.258-1.907.819-1.907 1.5 0 .199.161.36.36.36h5.743a.36.36 0 0 0 .36-.36c0-.682-.712-1.242-1.906-1.5zM9.243 17.89c.223-.167.588-.331 1.083-.438a5.803 5.803 0 0 1 2.347 0c.496.107.861.27 1.084.438H9.243z"/></svg></svg>